# Blender 4.0.2
# www.blender.org
mtllib coin.mtl
o coin
v 0.000000 0.200000 -0.030000
v 0.000000 0.200000 0.030000
v 0.039018 0.196157 -0.030000
v 0.039018 0.196157 0.030000
v 0.076537 0.184776 -0.030000
v 0.076537 0.184776 0.030000
v 0.111114 0.166294 -0.030000
v 0.111114 0.166294 0.030000
v 0.141421 0.141421 -0.030000
v 0.141421 0.141421 0.030000
v 0.166294 0.111114 -0.030000
v 0.166294 0.111114 0.030000
v 0.184776 0.076537 -0.030000
v 0.184776 0.076537 0.030000
v 0.196157 0.039018 -0.030000
v 0.196157 0.039018 0.030000
v 0.200000 0.000000 -0.030000
v 0.200000 -0.000000 0.030000
v 0.196157 -0.039018 -0.030000
v 0.196157 -0.039018 0.030000
v 0.184776 -0.076537 -0.030000
v 0.184776 -0.076537 0.030000
v 0.166294 -0.111114 -0.030000
v 0.166294 -0.111114 0.030000
v 0.141421 -0.141421 -0.030000
v 0.141421 -0.141421 0.030000
v 0.111114 -0.166294 -0.030000
v 0.111114 -0.166294 0.030000
v 0.076537 -0.184776 -0.030000
v 0.076537 -0.184776 0.030000
v 0.039018 -0.196157 -0.030000
v 0.039018 -0.196157 0.030000
v 0.000000 -0.200000 -0.030000
v 0.000000 -0.200000 0.030000
v -0.039018 -0.196157 -0.030000
v -0.039018 -0.196157 0.030000
v -0.076537 -0.184776 -0.030000
v -0.076537 -0.184776 0.030000
v -0.111114 -0.166294 -0.030000
v -0.111114 -0.166294 0.030000
v -0.141421 -0.141421 -0.030000
v -0.141421 -0.141421 0.030000
v -0.166294 -0.111114 -0.030000
v -0.166294 -0.111114 0.030000
v -0.184776 -0.076537 -0.030000
v -0.184776 -0.076537 0.030000
v -0.196157 -0.039018 -0.030000
v -0.196157 -0.039018 0.030000
v -0.200000 0.000000 -0.030000
v -0.200000 -0.000000 0.030000
v -0.196157 0.039018 -0.030000
v -0.196157 0.039018 0.030000
v -0.184776 0.076537 -0.030000
v -0.184776 0.076537 0.030000
v -0.166294 0.111114 -0.030000
v -0.166294 0.111114 0.030000
v -0.141421 0.141421 -0.030000
v -0.141421 0.141421 0.030000
v -0.111114 0.166294 -0.030000
v -0.111114 0.166294 0.030000
v -0.076537 0.184776 -0.030000
v -0.076537 0.184776 0.030000
v -0.039018 0.196157 -0.030000
v -0.039018 0.196157 0.030000
v 0.039129 -0.196714 -0.043734
v 0.000000 -0.200567 -0.043734
v 0.000000 0.200567 -0.043734
v 0.000000 0.142116 -0.043734
v 0.039129 0.196714 -0.043734
v 0.027725 0.139385 -0.043734
v 0.076754 0.185300 -0.043734
v 0.054385 0.131298 -0.043734
v 0.111429 0.166766 -0.043734
v 0.078955 0.118165 -0.043734
v 0.141823 0.141823 -0.043734
v 0.100491 0.100491 -0.043734
v 0.166766 0.111429 -0.043734
v 0.118165 0.078955 -0.043734
v 0.185300 0.076754 -0.043734
v 0.131298 0.054385 -0.043734
v 0.196714 0.039129 -0.043734
v 0.139385 0.027725 -0.043734
v 0.200567 0.000000 -0.043734
v 0.142116 0.000000 -0.043734
v 0.196714 -0.039129 -0.043734
v 0.139385 -0.027725 -0.043734
v 0.185300 -0.076754 -0.043734
v 0.131298 -0.054385 -0.043734
v 0.166766 -0.111429 -0.043734
v 0.118165 -0.078955 -0.043734
v 0.141823 -0.141823 -0.043734
v 0.100491 -0.100491 -0.043734
v 0.111429 -0.166766 -0.043734
v 0.078955 -0.118165 -0.043734
v 0.076754 -0.185300 -0.043734
v 0.054385 -0.131298 -0.043734
v 0.027725 -0.139385 -0.043734
v 0.000000 -0.142116 -0.043734
v -0.039129 -0.196714 -0.043734
v -0.027726 -0.139385 -0.043734
v -0.076754 -0.185300 -0.043734
v -0.054385 -0.131298 -0.043734
v -0.111429 -0.166766 -0.043734
v -0.078955 -0.118165 -0.043734
v -0.141823 -0.141823 -0.043734
v -0.100491 -0.100491 -0.043734
v -0.166766 -0.111429 -0.043734
v -0.118165 -0.078955 -0.043734
v -0.185300 -0.076754 -0.043734
v -0.131298 -0.054385 -0.043734
v -0.196714 -0.039129 -0.043734
v -0.139385 -0.027725 -0.043734
v -0.200567 0.000000 -0.043734
v -0.142116 0.000000 -0.043734
v -0.196714 0.039129 -0.043734
v -0.139385 0.027725 -0.043734
v -0.185300 0.076754 -0.043734
v -0.131298 0.054385 -0.043734
v -0.166766 0.111429 -0.043734
v -0.118165 0.078955 -0.043734
v -0.141823 0.141823 -0.043734
v -0.100491 0.100491 -0.043734
v -0.111429 0.166766 -0.043734
v -0.078955 0.118165 -0.043734
v -0.076754 0.185300 -0.043734
v -0.054385 0.131298 -0.043734
v -0.039129 0.196714 -0.043734
v -0.027726 0.139385 -0.043734
v 0.196714 -0.039129 -0.043734
v 0.139385 -0.027725 -0.043734
v 0.039129 -0.196714 0.043734
v 0.000000 -0.200567 0.043734
v 0.000000 0.200567 0.043734
v 0.000000 0.142116 0.043734
v 0.039129 0.196714 0.043734
v 0.027725 0.139385 0.043734
v 0.076754 0.185300 0.043734
v 0.054385 0.131298 0.043734
v 0.111429 0.166766 0.043734
v 0.078955 0.118165 0.043734
v 0.141823 0.141823 0.043734
v 0.100491 0.100491 0.043734
v 0.166766 0.111429 0.043734
v 0.118165 0.078955 0.043734
v 0.185300 0.076754 0.043734
v 0.131298 0.054385 0.043734
v 0.196714 0.039129 0.043734
v 0.139385 0.027725 0.043734
v 0.200567 -0.000000 0.043734
v 0.142116 -0.000000 0.043734
v 0.196714 -0.039129 0.043734
v 0.139385 -0.027725 0.043734
v 0.185300 -0.076754 0.043734
v 0.131298 -0.054385 0.043734
v 0.166766 -0.111429 0.043734
v 0.118165 -0.078955 0.043734
v 0.141823 -0.141823 0.043734
v 0.100491 -0.100491 0.043734
v 0.111429 -0.166766 0.043734
v 0.078955 -0.118165 0.043734
v 0.076754 -0.185300 0.043734
v 0.054385 -0.131298 0.043734
v 0.027725 -0.139385 0.043734
v 0.000000 -0.142116 0.043734
v -0.039129 -0.196714 0.043734
v -0.027726 -0.139385 0.043734
v -0.076754 -0.185300 0.043734
v -0.054385 -0.131298 0.043734
v -0.111429 -0.166766 0.043734
v -0.078955 -0.118165 0.043734
v -0.141823 -0.141823 0.043734
v -0.100491 -0.100491 0.043734
v -0.166766 -0.111429 0.043734
v -0.118165 -0.078955 0.043734
v -0.185300 -0.076754 0.043734
v -0.131298 -0.054385 0.043734
v -0.196714 -0.039129 0.043734
v -0.139385 -0.027725 0.043734
v -0.200567 -0.000000 0.043734
v -0.142116 -0.000000 0.043734
v -0.196714 0.039129 0.043734
v -0.139385 0.027725 0.043734
v -0.185300 0.076754 0.043734
v -0.131298 0.054385 0.043734
v -0.166766 0.111429 0.043734
v -0.118165 0.078955 0.043734
v -0.141823 0.141823 0.043734
v -0.100491 0.100491 0.043734
v -0.111429 0.166766 0.043734
v -0.078955 0.118165 0.043734
v -0.076754 0.185300 0.043734
v -0.054385 0.131298 0.043734
v -0.039129 0.196714 0.043734
v -0.027726 0.139385 0.043734
v 0.196714 -0.039129 0.043734
v 0.139385 -0.027725 0.043734
vn 0.0980 0.9952 -0.0000
vn 0.2903 0.9569 -0.0000
vn 0.4714 0.8819 -0.0000
vn 0.6344 0.7730 -0.0000
vn 0.7730 0.6344 -0.0000
vn 0.8819 0.4714 -0.0000
vn 0.9569 0.2903 -0.0000
vn 0.9952 0.0980 -0.0000
vn 0.9952 -0.0980 -0.0000
vn 0.9569 -0.2903 -0.0000
vn 0.8819 -0.4714 -0.0000
vn 0.7730 -0.6344 -0.0000
vn 0.6344 -0.7730 -0.0000
vn 0.4714 -0.8819 -0.0000
vn 0.2903 -0.9569 -0.0000
vn 0.0980 -0.9952 -0.0000
vn -0.0980 -0.9952 -0.0000
vn -0.2903 -0.9569 -0.0000
vn -0.4714 -0.8819 -0.0000
vn -0.6344 -0.7730 -0.0000
vn -0.7730 -0.6344 -0.0000
vn -0.8819 -0.4714 -0.0000
vn -0.9569 -0.2903 -0.0000
vn -0.9952 -0.0980 -0.0000
vn -0.9952 0.0980 -0.0000
vn -0.9569 0.2903 -0.0000
vn -0.8819 0.4714 -0.0000
vn -0.7730 0.6344 -0.0000
vn -0.6344 0.7730 -0.0000
vn -0.4714 0.8819 -0.0000
vn -0.0000 -0.0000 1.0000
vn -0.2903 0.9569 -0.0000
vn -0.0980 0.9952 -0.0000
vn -0.0000 -0.0000 -1.0000
vn 0.1951 0.9808 -0.0000
vn -0.1951 -0.9808 -0.0000
vt 1.000000 0.500000
vt 1.000000 1.000000
vt 0.968750 1.000000
vt 0.968750 0.500000
vt 0.937500 1.000000
vt 0.937500 0.500000
vt 0.906250 1.000000
vt 0.906250 0.500000
vt 0.875000 1.000000
vt 0.875000 0.500000
vt 0.843750 1.000000
vt 0.843750 0.500000
vt 0.812500 1.000000
vt 0.812500 0.500000
vt 0.781250 1.000000
vt 0.781250 0.500000
vt 0.750000 1.000000
vt 0.750000 0.500000
vt 0.718750 1.000000
vt 0.718750 0.500000
vt 0.687500 1.000000
vt 0.687500 0.500000
vt 0.656250 1.000000
vt 0.656250 0.500000
vt 0.625000 1.000000
vt 0.625000 0.500000
vt 0.593750 1.000000
vt 0.593750 0.500000
vt 0.562500 1.000000
vt 0.562500 0.500000
vt 0.531250 1.000000
vt 0.531250 0.500000
vt 0.500000 1.000000
vt 0.500000 0.500000
vt 0.468750 1.000000
vt 0.468750 0.500000
vt 0.437500 1.000000
vt 0.437500 0.500000
vt 0.406250 1.000000
vt 0.406250 0.500000
vt 0.375000 1.000000
vt 0.375000 0.500000
vt 0.343750 1.000000
vt 0.343750 0.500000
vt 0.312500 1.000000
vt 0.312500 0.500000
vt 0.281250 1.000000
vt 0.281250 0.500000
vt 0.250000 1.000000
vt 0.250000 0.500000
vt 0.218750 1.000000
vt 0.218750 0.500000
vt 0.187500 1.000000
vt 0.187500 0.500000
vt 0.156250 1.000000
vt 0.156250 0.500000
vt 0.125000 1.000000
vt 0.125000 0.500000
vt 0.093750 1.000000
vt 0.093750 0.500000
vt 0.062500 1.000000
vt 0.062500 0.500000
vt 0.296822 0.485388
vt 0.250000 0.490000
vt 0.203178 0.485388
vt 0.158156 0.471731
vt 0.116663 0.449553
vt 0.080294 0.419706
vt 0.050447 0.383337
vt 0.028269 0.341844
vt 0.014612 0.296822
vt 0.010000 0.250000
vt 0.014612 0.203178
vt 0.028269 0.158156
vt 0.050447 0.116663
vt 0.080294 0.080294
vt 0.116663 0.050447
vt 0.158156 0.028269
vt 0.203178 0.014612
vt 0.250000 0.010000
vt 0.296822 0.014612
vt 0.341844 0.028269
vt 0.383337 0.050447
vt 0.419706 0.080294
vt 0.449553 0.116663
vt 0.471731 0.158156
vt 0.485388 0.203178
vt 0.490000 0.250000
vt 0.485388 0.296822
vt 0.471731 0.341844
vt 0.449553 0.383337
vt 0.419706 0.419706
vt 0.383337 0.449553
vt 0.341844 0.471731
vt 0.031250 1.000000
vt 0.031250 0.500000
vt 0.000000 1.000000
vt 0.000000 0.500000
vt 0.750000 0.490000
vt 0.796822 0.485388
vt 0.841844 0.471731
vt 0.883337 0.449553
vt 0.919706 0.419706
vt 0.949553 0.383337
vt 0.971731 0.341844
vt 0.985388 0.296822
vt 0.990000 0.250000
vt 0.985388 0.203178
vt 0.971731 0.158156
vt 0.949553 0.116663
vt 0.919706 0.080294
vt 0.883337 0.050447
vt 0.841844 0.028269
vt 0.796822 0.014612
vt 0.750000 0.010000
vt 0.703178 0.014612
vt 0.658156 0.028269
vt 0.616663 0.050447
vt 0.580294 0.080294
vt 0.550447 0.116663
vt 0.528269 0.158156
vt 0.514612 0.203178
vt 0.510000 0.250000
vt 0.514612 0.296822
vt 0.528269 0.341844
vt 0.550447 0.383337
vt 0.580294 0.419706
vt 0.616663 0.449553
vt 0.658156 0.471731
vt 0.703178 0.485388
vt 0.000000 0.000000
s 0
f 1/1/1 2/2/1 4/3/1 3/4/1
f 3/4/2 4/3/2 6/5/2 5/6/2
f 5/6/3 6/5/3 8/7/3 7/8/3
f 7/8/4 8/7/4 10/9/4 9/10/4
f 9/10/5 10/9/5 12/11/5 11/12/5
f 11/12/6 12/11/6 14/13/6 13/14/6
f 13/14/7 14/13/7 16/15/7 15/16/7
f 15/16/8 16/15/8 18/17/8 17/18/8
f 17/18/9 18/17/9 20/19/9 19/20/9
f 19/20/10 20/19/10 22/21/10 21/22/10
f 21/22/11 22/21/11 24/23/11 23/24/11
f 23/24/12 24/23/12 26/25/12 25/26/12
f 25/26/13 26/25/13 28/27/13 27/28/13
f 27/28/14 28/27/14 30/29/14 29/30/14
f 29/30/15 30/29/15 32/31/15 31/32/15
f 31/32/16 32/31/16 34/33/16 33/34/16
f 33/34/17 34/33/17 36/35/17 35/36/17
f 35/36/18 36/35/18 38/37/18 37/38/18
f 37/38/19 38/37/19 40/39/19 39/40/19
f 39/40/20 40/39/20 42/41/20 41/42/20
f 41/42/21 42/41/21 44/43/21 43/44/21
f 43/44/22 44/43/22 46/45/22 45/46/22
f 45/46/23 46/45/23 48/47/23 47/48/23
f 47/48/24 48/47/24 50/49/24 49/50/24
f 49/50/25 50/49/25 52/51/25 51/52/25
f 51/52/26 52/51/26 54/53/26 53/54/26
f 53/54/27 54/53/27 56/55/27 55/56/27
f 55/56/28 56/55/28 58/57/28 57/58/28
f 57/58/29 58/57/29 60/59/29 59/60/29
f 59/60/30 60/59/30 62/61/30 61/62/30
f 4/63/31 2/64/31 64/65/31 62/66/31 60/67/31 58/68/31 56/69/31 54/70/31 52/71/31 50/72/31 48/73/31 46/74/31 44/75/31 42/76/31 40/77/31 38/78/31 36/79/31 34/80/31 32/81/31 30/82/31 28/83/31 26/84/31 24/85/31 22/86/31 20/87/31 18/88/31 16/89/31 14/90/31 12/91/31 10/92/31 8/93/31 6/94/31
f 61/62/32 62/61/32 64/95/32 63/96/32
f 63/96/33 64/95/33 2/97/33 1/98/33
f 1/99/34 3/100/34 5/101/34 7/102/34 9/103/34 11/104/34 13/105/34 15/106/34 17/107/34 19/108/34 21/109/34 23/110/34 25/111/34 27/112/34 29/113/34 31/114/34 33/115/34 35/116/34 37/117/34 39/118/34 41/119/34 43/120/34 45/121/34 47/122/34 49/123/34 51/124/34 53/125/34 55/126/34 57/127/34 59/128/34 61/129/34 63/130/34
f 68/131/34 67/131/34 69/131/34 70/131/34
f 68/131/34 128/131/34 127/131/34 67/131/34
f 126/131/34 125/131/34 127/131/34 128/131/34
f 124/131/34 123/131/34 125/131/34 126/131/34
f 122/131/34 121/131/34 123/131/34 124/131/34
f 120/131/34 119/131/34 121/131/34 122/131/34
f 118/131/34 117/131/34 119/131/34 120/131/34
f 116/131/34 115/131/34 117/131/34 118/131/34
f 114/131/34 113/131/34 115/131/34 116/131/34
f 112/131/34 111/131/34 113/131/34 114/131/34
f 110/131/34 109/131/34 111/131/34 112/131/34
f 108/131/34 107/131/34 109/131/34 110/131/34
f 106/131/34 105/131/34 107/131/34 108/131/34
f 104/131/34 103/131/34 105/131/34 106/131/34
f 102/131/34 101/131/34 103/131/34 104/131/34
f 100/131/34 99/131/34 101/131/34 102/131/34
f 98/131/34 66/131/34 99/131/34 100/131/34
f 66/131/34 98/131/34 97/131/34 65/131/34
f 96/131/34 95/131/34 65/131/34 97/131/34
f 94/131/34 93/131/34 95/131/34 96/131/34
f 92/131/34 91/131/34 93/131/34 94/131/34
f 90/131/34 89/131/34 91/131/34 92/131/34
f 88/131/34 87/131/34 89/131/34 90/131/34
f 86/131/34 85/131/34 87/131/34 88/131/34
f 84/131/34 83/131/34 129/131/34 130/131/34
f 82/131/34 81/131/34 83/131/34 84/131/34
f 80/131/34 79/131/34 81/131/34 82/131/34
f 78/131/34 77/131/34 79/131/34 80/131/34
f 76/131/34 75/131/34 77/131/34 78/131/34
f 74/131/34 73/131/34 75/131/34 76/131/34
f 72/131/34 71/131/34 73/131/34 74/131/34
f 70/131/34 69/131/34 71/131/34 72/131/34
f 134/131/31 136/131/31 135/131/31 133/131/31
f 134/131/31 133/131/31 193/131/31 194/131/31
f 192/131/31 194/131/31 193/131/31 191/131/31
f 190/131/31 192/131/31 191/131/31 189/131/31
f 188/131/31 190/131/31 189/131/31 187/131/31
f 186/131/31 188/131/31 187/131/31 185/131/31
f 184/131/31 186/131/31 185/131/31 183/131/31
f 182/131/31 184/131/31 183/131/31 181/131/31
f 180/131/31 182/131/31 181/131/31 179/131/31
f 178/131/31 180/131/31 179/131/31 177/131/31
f 176/131/31 178/131/31 177/131/31 175/131/31
f 174/131/31 176/131/31 175/131/31 173/131/31
f 172/131/31 174/131/31 173/131/31 171/131/31
f 170/131/31 172/131/31 171/131/31 169/131/31
f 168/131/31 170/131/31 169/131/31 167/131/31
f 166/131/31 168/131/31 167/131/31 165/131/31
f 164/131/31 166/131/31 165/131/31 132/131/31
f 132/131/31 131/131/31 163/131/31 164/131/31
f 162/131/31 163/131/31 131/131/31 161/131/31
f 160/131/31 162/131/31 161/131/31 159/131/31
f 158/131/31 160/131/31 159/131/31 157/131/31
f 156/131/31 158/131/31 157/131/31 155/131/31
f 154/131/31 156/131/31 155/131/31 153/131/31
f 152/131/31 154/131/31 153/131/31 151/131/31
f 150/131/31 196/131/31 195/131/31 149/131/31
f 148/131/31 150/131/31 149/131/31 147/131/31
f 146/131/31 148/131/31 147/131/31 145/131/31
f 144/131/31 146/131/31 145/131/31 143/131/31
f 142/131/31 144/131/31 143/131/31 141/131/31
f 140/131/31 142/131/31 141/131/31 139/131/31
f 138/131/31 140/131/31 139/131/31 137/131/31
f 136/131/31 138/131/31 137/131/31 135/131/31
f 76/131/21 78/131/21 144/131/21 142/131/21
f 91/131/12 89/131/12 155/131/12 157/131/12
f 99/131/17 66/131/17 132/131/17 165/131/17
f 78/131/22 80/131/22 146/131/22 144/131/22
f 93/131/13 91/131/13 157/131/13 159/131/13
f 101/131/18 99/131/18 165/131/18 167/131/18
f 82/131/24 84/131/24 150/131/24 148/131/24
f 95/131/14 93/131/14 159/131/14 161/131/14
f 103/131/19 101/131/19 167/131/19 169/131/19
f 80/131/23 82/131/23 148/131/23 146/131/23
f 65/131/15 95/131/15 161/131/15 131/131/15
f 105/131/20 103/131/20 169/131/20 171/131/20
f 85/131/35 86/131/35 152/131/35 151/131/35
f 86/131/26 88/131/26 154/131/26 152/131/26
f 96/131/32 97/131/32 163/131/32 162/131/32
f 107/131/21 105/131/21 171/131/21 173/131/21
f 88/131/27 90/131/27 156/131/27 154/131/27
f 97/131/33 98/131/33 164/131/33 163/131/33
f 109/131/22 107/131/22 173/131/22 175/131/22
f 90/131/28 92/131/28 158/131/28 156/131/28
f 98/131/1 100/131/1 166/131/1 164/131/1
f 111/131/23 109/131/23 175/131/23 177/131/23
f 92/131/29 94/131/29 160/131/29 158/131/29
f 100/131/2 102/131/2 168/131/2 166/131/2
f 113/131/24 111/131/24 177/131/24 179/131/24
f 94/131/30 96/131/30 162/131/30 160/131/30
f 102/131/3 104/131/3 170/131/3 168/131/3
f 115/131/25 113/131/25 179/131/25 181/131/25
f 130/131/36 129/131/36 195/131/36 196/131/36
f 104/131/4 106/131/4 172/131/4 170/131/4
f 117/131/26 115/131/26 181/131/26 183/131/26
f 129/131/9 83/131/9 149/131/9 195/131/9
f 106/131/5 108/131/5 174/131/5 172/131/5
f 119/131/27 117/131/27 183/131/27 185/131/27
f 84/131/25 130/131/25 196/131/25 150/131/25
f 108/131/6 110/131/6 176/131/6 174/131/6
f 121/131/28 119/131/28 185/131/28 187/131/28
f 110/131/7 112/131/7 178/131/7 176/131/7
f 123/131/29 121/131/29 187/131/29 189/131/29
f 112/131/8 114/131/8 180/131/8 178/131/8
f 125/131/30 123/131/30 189/131/30 191/131/30
f 114/131/9 116/131/9 182/131/9 180/131/9
f 127/131/32 125/131/32 191/131/32 193/131/32
f 116/131/10 118/131/10 184/131/10 182/131/10
f 67/131/33 127/131/33 193/131/33 133/131/33
f 118/131/11 120/131/11 186/131/11 184/131/11
f 69/131/1 67/131/1 133/131/1 135/131/1
f 120/131/12 122/131/12 188/131/12 186/131/12
f 71/131/2 69/131/2 135/131/2 137/131/2
f 122/131/13 124/131/13 190/131/13 188/131/13
f 73/131/3 71/131/3 137/131/3 139/131/3
f 124/131/14 126/131/14 192/131/14 190/131/14
f 75/131/4 73/131/4 139/131/4 141/131/4
f 66/131/16 65/131/16 131/131/16 132/131/16
f 126/131/15 128/131/15 194/131/15 192/131/15
f 77/131/5 75/131/5 141/131/5 143/131/5
f 128/131/16 68/131/16 134/131/16 194/131/16
f 79/131/6 77/131/6 143/131/6 145/131/6
f 68/131/17 70/131/17 136/131/17 134/131/17
f 81/131/7 79/131/7 145/131/7 147/131/7
f 70/131/18 72/131/18 138/131/18 136/131/18
f 83/131/8 81/131/8 147/131/8 149/131/8
f 72/131/19 74/131/19 140/131/19 138/131/19
f 87/131/10 85/131/10 151/131/10 153/131/10
f 74/131/20 76/131/20 142/131/20 140/131/20
f 89/131/11 87/131/11 153/131/11 155/131/11
